# xmcd CD database file
#
# Track frame offsets:
#	150
#	35021
#	62304
#	83186
#	114781
#	131114
#	146859
#	172095
#	199567
#
# Disc length: 3170 seconds
#
# Revision: 0
# Processed by: cddbd v1.4PL0 Copyright (c) Steve Scherf et al.
# Submitted via: CDex 1.51
#
DISCID=7b0c6009
DTITLE=Michel Pepe -  Les Perles du Coeur 
DYEAR=2002
DGENRE=New Age
TTITLE0=Michel Pepe - Les Perles du Coeur - 01 - Incantation
TTITLE1=Michel Pepe - Les Perles du Coeur - 02 - Serenite
TTITLE2=Michel Pepe - Les Perles du Coeur - 03 - Terre Celeste
TTITLE3=Michel Pepe - Les Perles du Coeur - 04 - Ravissement
TTITLE4=Michel Pepe - Les Perles du Coeur - 05 - Fusion
TTITLE5=Michel pepe - Les Perles du Coeur - 06 - La Rencontre
TTITLE6=Michel pepe - Les Perles du Coeur - 07 - Louanges
TTITLE7=Michel Pepe - Les perles du Coeur - 08 - Le Lotus Sacre
TTITLE8=Michel Pepe - Les Perles du Coeur - 09 - Purification
EXTD=YEAR: 2002
EXTT0=
EXTT1=
EXTT2=
EXTT3=
EXTT4=
EXTT5=
EXTT6=
EXTT7=
EXTT8=
PLAYORDER=
